<mxfile host="app.diagrams.net" agent="Mozilla/5.0 (Macintosh; Intel Mac OS X 10_15_7) AppleWebKit/605.1.15 (KHTML, like Gecko) Version/18.5 Safari/605.1.15" version="27.1.6">
  <diagram name="Page-1" id="SE2NRigNZTvakMiMKljv">
    <mxGraphModel dx="811" dy="625" grid="1" gridSize="10" guides="1" tooltips="1" connect="1" arrows="1" fold="1" page="1" pageScale="1" pageWidth="850" pageHeight="1100" math="0" shadow="0">
      <root>
        <mxCell id="0" />
        <mxCell id="1" parent="0" />
        <mxCell id="GEOYRKGCcmK6YPVC_PbE-1" value="User&#xa;---------&#xa;user_id (PK)&#xa;first_name&#xa;last_name&#xa;email (Unique, Indexed)&#xa;password_hash&#xa;phone_number&#xa;role (guest, host, admin)&#xa;created_at" style="text;whiteSpace=wrap;html=1;" vertex="1" parent="1">
          <mxGeometry x="380" y="330" width="160" height="160" as="geometry" />
        </mxCell>
        <mxCell id="GEOYRKGCcmK6YPVC_PbE-2" value="Property&#xa;---------------&#xa;property_id (PK)&#xa;host_id (FK → User.user_id)&#xa;name&#xa;description&#xa;location&#xa;pricepernight&#xa;created_at&#xa;updated_at" style="text;whiteSpace=wrap;html=1;" vertex="1" parent="1">
          <mxGeometry x="60" y="120" width="180" height="160" as="geometry" />
        </mxCell>
        <mxCell id="GEOYRKGCcmK6YPVC_PbE-3" value="Booking&#xa;-----------------&#xa;booking_id (PK)&#xa;property_id (FK → Property.property_id)&#xa;user_id (FK → User.user_id)&#xa;start_date&#xa;end_date&#xa;total_price&#xa;status (pending, confirmed, canceled)&#xa;created_at" style="text;whiteSpace=wrap;html=1;" vertex="1" parent="1">
          <mxGeometry x="630" y="250" width="250" height="160" as="geometry" />
        </mxCell>
        <mxCell id="GEOYRKGCcmK6YPVC_PbE-4" value="Payment&#xa;-----------------&#xa;payment_id (PK)&#xa;booking_id (FK → Booking.booking_id)&#xa;amount&#xa;payment_date&#xa;payment_method (credit_card, paypal, stripe)" style="text;whiteSpace=wrap;html=1;" vertex="1" parent="1">
          <mxGeometry x="60" y="500" width="270" height="120" as="geometry" />
        </mxCell>
        <mxCell id="GEOYRKGCcmK6YPVC_PbE-5" value="Review&#xa;----------------&#xa;review_id (PK)&#xa;property_id (FK → Property.property_id)&#xa;user_id (FK → User.user_id)&#xa;rating (1-5)&#xa;comment&#xa;created_at" style="text;whiteSpace=wrap;html=1;" vertex="1" parent="1">
          <mxGeometry x="610" y="510" width="250" height="140" as="geometry" />
        </mxCell>
        <mxCell id="GEOYRKGCcmK6YPVC_PbE-6" value="Message&#xa;--------------------&#xa;message_id (PK)&#xa;sender_id (FK → User.user_id)&#xa;recipient_id (FK → User.user_id)&#xa;message_body&#xa;sent_at" style="text;whiteSpace=wrap;html=1;" vertex="1" parent="1">
          <mxGeometry x="370" y="130" width="210" height="120" as="geometry" />
        </mxCell>
        <mxCell id="GEOYRKGCcmK6YPVC_PbE-7" value="" style="edgeStyle=orthogonalEdgeStyle;fontSize=12;html=1;endArrow=ERoneToMany;rounded=0;exitX=0;exitY=0.25;exitDx=0;exitDy=0;entryX=1;entryY=0.319;entryDx=0;entryDy=0;entryPerimeter=0;" edge="1" parent="1" source="GEOYRKGCcmK6YPVC_PbE-1" target="GEOYRKGCcmK6YPVC_PbE-2">
          <mxGeometry width="100" height="100" relative="1" as="geometry">
            <mxPoint x="70" y="430" as="sourcePoint" />
            <mxPoint x="160" y="300" as="targetPoint" />
          </mxGeometry>
        </mxCell>
        <mxCell id="GEOYRKGCcmK6YPVC_PbE-9" value="" style="edgeStyle=entityRelationEdgeStyle;fontSize=12;html=1;endArrow=ERoneToMany;rounded=0;entryX=0;entryY=0.438;entryDx=0;entryDy=0;entryPerimeter=0;exitX=1;exitY=0.25;exitDx=0;exitDy=0;" edge="1" parent="1" source="GEOYRKGCcmK6YPVC_PbE-1" target="GEOYRKGCcmK6YPVC_PbE-3">
          <mxGeometry width="100" height="100" relative="1" as="geometry">
            <mxPoint x="470" y="370" as="sourcePoint" />
            <mxPoint x="570" y="270" as="targetPoint" />
          </mxGeometry>
        </mxCell>
        <mxCell id="GEOYRKGCcmK6YPVC_PbE-10" value="" style="edgeStyle=entityRelationEdgeStyle;fontSize=12;html=1;endArrow=ERoneToMany;rounded=0;exitX=1;exitY=0.25;exitDx=0;exitDy=0;entryX=0;entryY=0.5;entryDx=0;entryDy=0;" edge="1" parent="1" source="GEOYRKGCcmK6YPVC_PbE-1" target="GEOYRKGCcmK6YPVC_PbE-5">
          <mxGeometry width="100" height="100" relative="1" as="geometry">
            <mxPoint x="460" y="700" as="sourcePoint" />
            <mxPoint x="560" y="600" as="targetPoint" />
          </mxGeometry>
        </mxCell>
        <mxCell id="GEOYRKGCcmK6YPVC_PbE-11" value="" style="edgeStyle=orthogonalEdgeStyle;fontSize=12;html=1;endArrow=ERoneToMany;rounded=0;exitX=1;exitY=0.25;exitDx=0;exitDy=0;entryX=0;entryY=0.5;entryDx=0;entryDy=0;" edge="1" parent="1" source="GEOYRKGCcmK6YPVC_PbE-1" target="GEOYRKGCcmK6YPVC_PbE-6">
          <mxGeometry width="100" height="100" relative="1" as="geometry">
            <mxPoint x="680" y="250" as="sourcePoint" />
            <mxPoint x="780" y="150" as="targetPoint" />
          </mxGeometry>
        </mxCell>
        <mxCell id="GEOYRKGCcmK6YPVC_PbE-12" value="" style="edgeStyle=orthogonalEdgeStyle;fontSize=12;html=1;endArrow=ERoneToMany;rounded=0;exitX=0;exitY=0.25;exitDx=0;exitDy=0;entryX=-0.008;entryY=0.344;entryDx=0;entryDy=0;entryPerimeter=0;" edge="1" parent="1" source="GEOYRKGCcmK6YPVC_PbE-2" target="GEOYRKGCcmK6YPVC_PbE-3">
          <mxGeometry width="100" height="100" relative="1" as="geometry">
            <mxPoint x="40" y="440" as="sourcePoint" />
            <mxPoint x="140" y="340" as="targetPoint" />
            <Array as="points">
              <mxPoint x="50" y="160" />
              <mxPoint x="50" y="60" />
              <mxPoint x="628" y="60" />
            </Array>
          </mxGeometry>
        </mxCell>
        <mxCell id="GEOYRKGCcmK6YPVC_PbE-13" value="" style="edgeStyle=orthogonalEdgeStyle;fontSize=12;html=1;endArrow=ERoneToMany;rounded=0;exitX=0;exitY=0.25;exitDx=0;exitDy=0;entryX=0;entryY=0.429;entryDx=0;entryDy=0;entryPerimeter=0;" edge="1" parent="1" source="GEOYRKGCcmK6YPVC_PbE-2" target="GEOYRKGCcmK6YPVC_PbE-5">
          <mxGeometry width="100" height="100" relative="1" as="geometry">
            <mxPoint x="410" y="650" as="sourcePoint" />
            <mxPoint x="510" y="550" as="targetPoint" />
            <Array as="points">
              <mxPoint x="50" y="160" />
              <mxPoint x="50" y="490" />
              <mxPoint x="610" y="490" />
            </Array>
          </mxGeometry>
        </mxCell>
        <mxCell id="GEOYRKGCcmK6YPVC_PbE-14" value="" style="edgeStyle=elbowEdgeStyle;fontSize=12;html=1;endArrow=ERmandOne;startArrow=ERmandOne;rounded=0;entryX=1;entryY=0.25;entryDx=0;entryDy=0;" edge="1" parent="1" source="GEOYRKGCcmK6YPVC_PbE-4" target="GEOYRKGCcmK6YPVC_PbE-3">
          <mxGeometry width="100" height="100" relative="1" as="geometry">
            <mxPoint x="410" y="620" as="sourcePoint" />
            <mxPoint x="890" y="320" as="targetPoint" />
            <Array as="points">
              <mxPoint x="820" y="670" />
            </Array>
          </mxGeometry>
        </mxCell>
      </root>
    </mxGraphModel>
  </diagram>
</mxfile>
